<svg xmlns="http://www.w3.org/2000/svg" width="12" height="12" viewBox="0 0 12 12">
    <path data-name="Icon metro-earth2" d="M8.571 13.928a6 6 0 1 1 6-6 6 6 0 0 1-6 6zm4.863-6.5a.037.037 0 0 0 .019-.026.183.183 0 0 0 .058.105v.008h.008a.181.181 0 0 0 .114.043.185.185 0 0 0 .157-.09l.008.009v-.018a.182.182 0 0 0 .025-.088.188.188 0 0 0-.187-.187.185.185 0 0 0-.154.087s0-.006 0 0a.17.17 0 0 0-.029-.09v.194a.2.2 0 0 1-.019.05zm-8.616-.059c0-.057-.129-.153-.162-.153 0-.01-.052-.126-.072-.126 0-.039-.137-.214-.159-.138-.014.049.1.116.1.174.022 0 .115.176.134.207.2.344-.152.109-.152-.037a.478.478 0 0 1-.117-.243.776.776 0 0 1-.1-.188c0-.11-.06-.162-.18-.162a3.794 3.794 0 0 0-.108-.153.4.4 0 0 0-.126-.207 1.454 1.454 0 0 1-.027-.305 1.034 1.034 0 0 0-.04-.321 5.233 5.233 0 0 0 2.956 7.136c0-.186.016-.409.058-.409 0-.028.024-.144.045-.144a2.272 2.272 0 0 0 0-.243c-.027-.054.035-.122.054-.207.1-.052.03-.575.109-.575a3.562 3.562 0 0 0 .018-.656c.02 0-.118-.147-.117-.144-.132 0-.225-.212-.225-.305a.566.566 0 0 1-.045-.153c.03 0-.189-.321-.189-.315-.116-.064.006-.155.018-.26-.1-.033 0-.306.045-.306a.085.085 0 0 1 .054-.072c.022.09.127-.045.045-.045 0-.059-.007-.186 0-.216 0-.092-.081-.271-.144-.081-.067-.033-.238-.027-.252-.135.01-.053-.1-.161-.135-.18.035-.092-.183-.216-.261-.216 0-.02-.042-.011-.054-.036-.08 0-.1-.108-.189-.108s-.21-.072-.306-.072c-.032-.064-.182-.039-.216-.108-.078 0-.109-.148-.111-.2s-.057-.3-.151-.3zm7.6-3.009a.019.019 0 0 1 0 .008c.006 0 .012.006.019.009zm.113.124a.121.121 0 0 1 .02.064c.013 0 .019-.007.03-.009-.021-.019-.038-.039-.054-.055zm.326 1.708c.006-.162-.135-.135-.18-.225-.046 0-.063-.036-.126-.036a.077.077 0 0 0-.1.029c-.1.037-.038-.047-.111-.047 0-.093-.033-.118-.135-.108-.059.132-.149.211-.135.36.043.01.036.019.027.063.057 0 .405-.018.405-.054.012 0 .072.124.072.018.048 0 .074.114.189.081 0 .027.193-.081.089-.081zm.018 1.914c.007-.033-.016-.048-.036-.081.051 0-.162-.4-.162-.458-.033-.016-.074-.129-.082-.171a.431.431 0 0 1-.108-.18.651.651 0 0 1-.171-.225c.064.007.162.02.162-.063-.043 0-.05-.054-.009-.054-.014-.055.029-.095.039-.138a1.017 1.017 0 0 0 .033-.195.3.3 0 0 0-.126.027c0 .036-.11-.009-.126-.009-.024-.047-.195.061-.243-.036-.078-.07-.057-.124-.082-.223-.013-.05-.081-.053-.123-.062-.117-.023-.033.14-.039.177.072 0-.045.089-.045.135-.122-.026-.081-.162-.153-.2-.021-.036 0-.063-.054-.063 0-.048.026-.135-.027-.153 0-.023-.1-.033-.117-.063-.064 0-.214-.244-.261-.162-.029.052.024.065.035.108.093-.018.084.154.2.135a.312.312 0 0 0 .009.072c.084-.02.075.063.117.063-.031.041-.128-.065-.1.024.015.052.007.1-.06.147 0-.056 0-.207-.063-.207-.04-.08-.158-.06-.208-.135-.041 0-.056-.126-.126-.135a.141.141 0 0 1-.081.036c-.038.076-.252.008-.252.018s-.12.286-.127.323c-.013.081-.078.082-.1.159-.01.038-.245.02-.245.048a.24.24 0 0 1-.189-.216 1.693 1.693 0 0 1 .036-.324c.021.006.025.013.036.036.062-.023.207.015.207-.054q.091 0 .054.072c.056.01.153.025.153-.054-.033 0-.036 0-.036-.036.108-.112-.081-.213-.081-.269-.038-.013-.116-.1-.061-.064s.218.08.151-.035a.013.013 0 0 0 .009-.009c.019.013.1.1.1.018.022 0 .108-.054.036-.054.007-.04.005-.074.009-.1.114.062.051-.042.108-.081 0 .075.061-.036.1-.036.045-.066.147-.015.171-.09-.055-.018-.045-.156-.045-.206.066.011.14-.09.15-.021 0 .027.007.1.021.11.1.052.072-.03.072-.081-.033 0-.077-.115-.081-.171-.027 0-.071.015-.081.036-.1 0-.165-.036-.243-.036a1.392 1.392 0 0 1-.09-.117c-.055-.094.055-.067.072-.071 0-.089.372-.073.388-.216-.122 0 .126-.207.126-.206.083-.071.127-.132.23-.14.043 0 .527-.136.527-.076h.151A5.227 5.227 0 0 0 5.092 4a.133.133 0 0 1 .014.049c.049 0 .12-.035.135.027a.308.308 0 0 1-.072-.009c.017.139-.061.054-.126.054a.181.181 0 0 0-.06-.023l-.061.055v.013c.021 0 .01.033.07.053a1.337 1.337 0 0 0 .219.048.7.7 0 0 0 .144-.011c0-.008.124-.063.036-.063.012-.05-.01-.062-.063-.063 0-.052.129-.018.18-.018.039-.066 0-.058.036-.117s.09-.01.117-.08a.126.126 0 0 1 .09.089c.033.027.2.272.2.1.059.02.089.131.09.189.108-.016.117-.1.117-.18.025 0-.009-.04-.009-.054.04-.015.09.038.09-.018.017 0 .018.017.018.036.056.011.092-.006.126.006s.012.131 0 .174-.118.055-.118.081c-.118.089.14.135.18.189a.5.5 0 0 1-.117-.018c-.059 0-.2.062-.252.018.073 0 .1-.087.108-.171a.129.129 0 0 0-.165.083c-.031.11-.1 0-.141.07-.014 0-.144.065-.144.045-.146.021-.108.145-.108.279.058.035.176.134.171.189.131.023.179.037.3.054a.143.143 0 0 0 .072.045c0 .077.07.063.135.063 0-.1.115.082.126.117-.016 0 .027.1.036.135-.018-.006-.024 0-.018.018.057.021.147.015.162-.045-.055 0-.036-.063-.036-.1a.068.068 0 0 1 .009-.126c0 .051.186-.032.081-.072a.2.2 0 0 0 0-.2c-.027-.031-.06 0-.073-.047.071-.018.019-.153.018-.216.022-.009.081.014.081 0 .069 0 .185.088.225-.018.116.053.024.1.144.063a.521.521 0 0 0 .153.162c0 .006 0 .045.027.045 0 .029-.018-.016-.018.036.017 0 .108.018.108-.018.058 0 .1-.071.1-.126.036-.024.1.2.144.2.032.05.135.123.135.171.022.022.045.016.045.081.027 0 .081-.108.081-.009a.17.17 0 0 1 .108.1c-.065 0 0 .063-.037.063 0 .062-.139.013-.171.009-.043.193-.3.054-.461.1a.537.537 0 0 0-.252.3c.1 0 .145-.087.234-.117.073 0 .087-.044.153-.063 0 .018.018.009.018.027-.128 0-.05.083-.013.143a.155.155 0 0 0 .08.067.356.356 0 0 0-.03.068c-.024.008-.072.026-.081.045-.145.016-.073.006-.064-.029.005.012.057 0 .055 0-.009-.043-.022-.038-.009-.063-.079 0-.117.036-.18.036C7.177 5.953 7.122 6 7.1 6a.426.426 0 0 1-.108.189c0-.015-.128.081-.117.081-.029.046-.06.045-.072.117a.6.6 0 0 0-.045.144c-.056.037-.076.189-.171.189-.058.115-.162.1-.162.252a.791.791 0 0 1 .06.246c.014.063.035.129-.05.131-.006-.009-.065-.1-.054-.1a.572.572 0 0 0-.081-.19c-.036-.05-.1.008-.153-.014-.022-.044-.172-.054-.225-.054.009.033.033.044.036.081a.2.2 0 0 1-.115.032c-.078-.011-.069-.072-.155-.063a.26.26 0 0 0-.234.265.794.794 0 0 0 0 .27c0 .076.063.131.063.189.061 0 .13.135.189.135.007.048-.03.055.072.054 0-.005.056-.035.063-.072-.07-.017 0-.108.045-.126 0 .064.09-.021.09-.027l.1-.036c0-.073.068.007.018.036-.049 0-.045.081-.072.081-.012.058-.034.108-.048.164s.039.076.021.141a1.127 1.127 0 0 0 .216 0 .064.064 0 0 0-.011-.036c.1 0 .009.2.072.2 0 .075.036.133.036.18a.119.119 0 0 1 .063.135c.06.008.189.023.189-.054.091 0 .1.062.091.126.181 0 .068-.18.144-.18.007-.03.02-.035.037-.015.037.02.065-.037.095-.055a.244.244 0 0 1 .048-.025c.025.015.028.011.039.028a.27.27 0 0 0 .142-.057c.065.008.044.147.165.156a.432.432 0 0 0 .2-.012c.011-.007.049.024.053.038.041 0 .037.035.055.034a.015.015 0 0 0 .018.009c.005.015.038.02.054.063 0 .039.081.046.081.072.058.029-.02.037.069.064a.648.648 0 0 0 .147.044c.017-.064.072.009.1.009.014.029.022.007.036.036.084.07.028.043.063.117.04.026.053.118.064.171-.032 0-.009.123-.009.135-.039 0 .1.074.1-.018.057.009.095.072.135.072-.024.054.063.1.063.009.085.009.063.136.054.18.063 0 .082-.035.136-.042a.367.367 0 0 1 .2-.064.375.375 0 0 1 .375.375.37.37 0 0 1-.315.356.656.656 0 0 1-.047.051c0 .018 0 .2-.009.2 0 .036-.027.234-.054.234 0 .1-.066.12-.09.216-.055.041-.2.108-.226.153-.042 0-.074.036-.117.036-.006.012-.1.1-.081.1-.007.064 0 .214-.03.256s-.057.025-.042.068c-.051 0 0 .036-.077.036a.178.178 0 0 0-.143.132.2.2 0 0 1-.084.169c0 .026-.117.033-.117.1.011 0 0 .122 0 .135a.213.213 0 0 0-.135.063c-.118 0-.1.012-.18.063 0 .016-.011.072-.027.072 0 .091-.065.008-.117.054.021 0 .047.09.036.09 0 .079-.049.086-.1.144-.024.016-.046.081-.063.081 0 .053-.027.1-.027.153.011 0 0 .023.009.044.025-.007.026-.036.036-.036 0-.045.072.027.027.027-.037.056-.077.057-.1.135-.022 0-.042.022-.058.047a5.219 5.219 0 0 0 5.789-2.207 1.439 1.439 0 0 1 .041-.3c.037.027.064.078.09 0-.065-.013-.049-.035-.027-.09a.227.227 0 0 0 .115.031c.012-.023.022-.048.035-.071-.037-.029.014-.1.032-.066l.026-.055h-.009c0-.033.006-.028.027-.045a.033.033 0 0 0 0 .006 5.222 5.222 0 0 0 .516-2.259v-.079c-.01.037-.028.077-.054.085 0 .024-.268.14-.252.189-.047 0-.213.047-.243.108a.418.418 0 0 0-.18.072c-.167 0-.135-.2-.216-.2zm.762-2.053h-.2s-.052-.1-.036-.117a.267.267 0 0 1 .032 0 3.285 3.285 0 0 0-.054-.123.259.259 0 0 1-.132.066c0 .015-.08.171 0 .171a.027.027 0 0 0 0 .008.186.186 0 0 0 .016.372h.074c0 .034.023.064.088.078.021.087.175.117.2.027-.065 0-.044-.063-.038-.1h.053a.188.188 0 0 0 0-.375zm-.546 2.438c.013 0 .1 0 .1-.017a.916.916 0 0 0 .261-.036c0 .116-.1.181-.081.3-.065 0-.036.067-.036.09-.042.026-.048.073-.1.1 0 .052-.117.138-.152.183s-.156.137-.172.2c0-.015-.215.228-.163.228 0 .045-.062.4.018.4 0 .031.068.333.027.333 0 .1-.063.156-.063.233-.031.021-.075.033-.09.063-.055 0-.082.117-.108.117 0 .125-.036.218-.036.359.01 0-.072.2-.072.215-.066.045-.234.2-.234.288l-.135.189a1.161 1.161 0 0 0-.307.072c-.058 0-.207.045-.243-.009 0-.057-.031-.129-.036-.207-.028 0-.032-.117-.063-.117a3.1 3.1 0 0 1-.144-.369.6.6 0 0 0-.036-.153c0-.124-.09-.227-.09-.341-.027 0-.082-.251-.054-.251a2.818 2.818 0 0 1 .06-.361.868.868 0 0 0-.038-.372c-.015 0-.067-.086-.072-.108a.273.273 0 0 1-.1-.233.608.608 0 0 0 .054-.324.4.4 0 0 0-.226-.027c-.058-.117-.448-.045-.559-.045 0 .064-.272-.012-.3-.063-.066 0-.2-.141-.2-.207a.74.74 0 0 1-.189-.368c-.063-.031-.044-.153-.009-.153a.641.641 0 0 0-.037-.191c-.011-.038.037-.079.037-.124a.542.542 0 0 1 .073-.317 1.224 1.224 0 0 0 .071-.134c.037-.094.049 0 .1-.089.048-.024.077-.1.126-.144.022-.029.022-.041 0-.063a.541.541 0 0 0 .063-.17c.07-.1.021-.053.09-.045.026-.028.068-.1.108-.1a.114.114 0 0 1 .1-.054c0 .054.147-.018.162-.018a.415.415 0 0 1 .225-.108c0-.062.319.017.37.009v-.028c.068.016.193.29.18.351a.7.7 0 0 1 .135 0c0 .058.11.072.159.075.069 0 .273-.007.273-.1a.084.084 0 0 1 .091.1c.061.007.422.014.4.09.053 0 .066.09.117.09-.01.062.063.225.117.225a.283.283 0 0 0 .081.188.658.658 0 0 0 .189.288c-.034.064.051.116.072.18 0 0 .018.094.045.108 0 .064.134.324.208.324.007.027-.067.041.029.048zM11.14 6.479c.014-.054.045-.012.075 0 .069.023.045 0 .1-.024-.003.145-.087.033-.175.024zm-.19-.27c.037 0 .047.165-.054.135 0-.041-.026-.117.027-.117.016.065.027.039.027-.017zm-.044-.109c.042.018.06.012.054-.018.055.018-.007.057-.018.1-.028-.027-.02-.036-.036-.082zm-.965-.8c-.088-.023.091-.049.1-.072A.042.042 0 0 1 10 5.173c.014-.031.036.037.066.022s.108-.058.071.047-.072.184-.207.186c-.046-.048 0-.074.011-.128zm.334-.368c.073 0 .009.054-.007.054.012 0 0 .048 0 .063.068 0 .069-.042.117-.054-.01.06-.078.072-.012.124.035.027.07.06.057.1.086 0 .1.082.081.18.048 0 .045 0 .045-.045.046.013.043.054 0 .054-.043.084-.155.081-.234.081 0-.065-.013-.069-.073-.051-.082.025-.018-.066-.016-.111.009 0 .187.008.081-.027-.006-.1-.027-.126-.117-.126 0-.066-.023-.061-.034-.134-.019-.104.08.011.112-.106zm-.027.584c0 .022-.045.04-.054.009.009 0 .012 0 .009-.009zm-.739-.965h-.376a.188.188 0 0 1 0-.375h.375a.188.188 0 0 1 0 .375zM7.323 7.872c.021 0 .045.008.045.027-.027.001-.062.026-.045-.027zm-.342.018c-.015.028-.136.024-.153-.009.045 0 .08.018.126 0 0-.025-.021-.045-.036-.072.049 0 .1.038.171.036 0-.042-.018.009 0-.045a.21.21 0 0 1 .1.1 1.338 1.338 0 0 0-.208-.01zm-.4-.216a.253.253 0 0 1-.162-.081c.045 0 .089.02.117-.027.114.012.125.09.216.09.017.03.116.1.021.109a.208.208 0 0 1-.192-.091zm.072.252c-.033 0-.088.015-.063-.054.048.006.069.028.067.054zm.063-.009-.054.009c.009-.041.048-.088.058-.009zm.333.395c-.007.025-.006.027-.036.027l.013-.039zm-.811-.746.027.009c.012.045.036.023.063.009.004.053-.117.068-.086-.017z" transform="translate(-2.571 -1.928)" style="fill:#fff;opacity:.61"/>
</svg>
