<svg xmlns="http://www.w3.org/2000/svg" width="8" height="6.996" viewBox="0 0 8 6.996">
    <g data-name="그룹 7424">
        <path data-name="Icon ionic-ios-arrow-down" d="M3.5 2.794 6.144.147a.5.5 0 0 1 .706 0 .5.5 0 0 1 0 .708l-3 3a.5.5 0 0 1-.689.015L.146.857A.5.5 0 0 1 .852.149z" transform="rotate(-90 5.498 1.498)" style="fill:#fff"/>
        <path data-name="Icon ionic-ios-arrow-down" d="M3.5 2.794 6.144.147a.5.5 0 0 1 .706 0 .5.5 0 0 1 0 .708l-3 3a.5.5 0 0 1-.689.015L.146.857A.5.5 0 0 1 .852.149z" transform="rotate(-90 3.498 3.498)" style="fill:#fff"/>
    </g>
</svg>
