<svg xmlns="http://www.w3.org/2000/svg" width="13.903" height="15.889" viewBox="0 0 13.903 15.889">
  <defs>
    <style>
      .cls-1 {
        fill: #778efe;
      }
    </style>
  </defs>
  <path id="Icon_awesome-shopping-bag" data-name="Icon awesome-shopping-bag" class="cls-1" d="M10.924,4.965V3.972a3.972,3.972,0,1,0-7.945,0v.993H0v8.441a2.483,2.483,0,0,0,2.483,2.483h8.938A2.483,2.483,0,0,0,13.9,13.407V4.965ZM4.965,3.972a1.986,1.986,0,1,1,3.972,0v.993H4.965ZM9.931,7.7a.745.745,0,1,1,.745-.745A.745.745,0,0,1,9.931,7.7Zm-5.959,0a.745.745,0,1,1,.745-.745A.745.745,0,0,1,3.972,7.7Z"/>
</svg>
