<svg xmlns="http://www.w3.org/2000/svg" width="14" height="11" viewBox="0 0 14 11">
  <defs>
    <style>
      .cls-1 {
        fill: #ffe250;
      }
    </style>
  </defs>
  <g id="normal_u717" transform="translate(-549 -453)">
    <path id="패스_4060" data-name="패스 4060" class="cls-1" d="M14,2.6a1.586,1.586,0,1,0-2.544,1.251L9.423,6.008,7.793,2.931a1.586,1.586,0,1,0-1.585,0L4.577,6.008,2.544,3.852A1.568,1.568,0,0,0,1.586,1.03,1.57,1.57,0,0,0,1.1,4.1l.98,6.441A.545.545,0,0,0,2.625,11h8.75a.545.545,0,0,0,.541-.461L12.9,4.1A1.576,1.576,0,0,0,14,2.6ZM2.078,2.6a.492.492,0,1,1-.492-.488A.49.49,0,0,1,2.078,2.6Zm4.43-1.03A.492.492,0,1,1,7,2.059.49.49,0,0,1,6.508,1.571Zm5.1,3.7L10.9,9.916H3.1l-.706-4.64L4.3,7.306a.55.55,0,0,0,.884-.118L7,3.767,8.813,7.188a.55.55,0,0,0,.884.118Zm1.3-2.675a.492.492,0,1,1-.492-.488A.491.491,0,0,1,12.906,2.6Z" transform="translate(549 453)"/>
  </g>
</svg>
