<svg xmlns="http://www.w3.org/2000/svg" width="24.461" height="21.404" viewBox="0 0 24.461 21.404">
    <path data-name="Icon awesome-camera" d="M24.461 7.6v13.76a2.294 2.294 0 0 1-2.293 2.293H2.293A2.294 2.294 0 0 1 0 21.361V7.6a2.294 2.294 0 0 1 2.293-2.292H6.5l.588-1.572A2.29 2.29 0 0 1 9.23 2.25h6a2.29 2.29 0 0 1 2.145 1.486l.592 1.572h4.2A2.294 2.294 0 0 1 24.461 7.6zm-6.5 6.88a5.733 5.733 0 1 0-5.733 5.733 5.738 5.738 0 0 0 5.736-5.732zm-1.529 0a4.2 4.2 0 1 1-4.2-4.2 4.211 4.211 0 0 1 4.203 4.201z" transform="translate(0 -2.25)" style="fill:#fff"/>
</svg>
