<svg xmlns="http://www.w3.org/2000/svg" xmlns:xlink="http://www.w3.org/1999/xlink" width="32" height="32" viewBox="0 0 32 32">
  <defs>
    <style>
      .cls-1 {
        fill: none;
      }

      .cls-2 {
        fill: url(#linear-gradient);
      }
    </style>
    <linearGradient id="linear-gradient" x1="0.5" x2="0.5" y2="1" gradientUnits="objectBoundingBox">
      <stop offset="0" stop-color="#ff994a"/>
      <stop offset="1" stop-color="#ff4f19"/>
    </linearGradient>
  </defs>
  <g id="그룹_9356" data-name="그룹 9356" transform="translate(-24 -81)">
    <rect id="사각형_4340" data-name="사각형 4340" class="cls-1" width="32" height="32" transform="translate(24 81)"/>
    <path id="Icon_ionic-md-share" data-name="Icon ionic-md-share" class="cls-2" d="M23.035,20.505a3.379,3.379,0,0,0-2.418.926l-8.865-5.124a4.152,4.152,0,0,0,.124-.865,4.15,4.15,0,0,0-.124-.865l8.741-5.062A3.71,3.71,0,1,0,19.316,6.8a4.127,4.127,0,0,0,.124.865L10.7,12.725a3.731,3.731,0,0,0-2.542-.988,3.67,3.67,0,0,0-3.657,3.7,3.732,3.732,0,0,0,6.261,2.717l8.8,5.124a3.1,3.1,0,0,0-.124.8,3.6,3.6,0,1,0,3.6-3.581Z" transform="translate(24.16 81.739)"/>
  </g>
</svg>
