<svg xmlns="http://www.w3.org/2000/svg" width="32" height="32" viewBox="0 0 32 32">
    <g data-name="그룹 9355">
        <path data-name="사각형 4340" style="fill:none" d="M0 0h32v32H0z"/>
        <path data-name="Icon ionic-md-share" d="M23.035 20.505a3.379 3.379 0 0 0-2.418.926l-8.865-5.124a4.152 4.152 0 0 0 .124-.865 4.15 4.15 0 0 0-.124-.865l8.741-5.062A3.71 3.71 0 1 0 19.316 6.8a4.127 4.127 0 0 0 .124.865l-8.74 5.06a3.731 3.731 0 0 0-2.542-.988 3.67 3.67 0 0 0-3.657 3.7 3.732 3.732 0 0 0 6.261 2.717l8.8 5.124a3.1 3.1 0 0 0-.124.8 3.6 3.6 0 1 0 3.6-3.581z" transform="translate(.16 .739)" style="fill:#fff"/>
    </g>
</svg>
