<svg xmlns="http://www.w3.org/2000/svg" width="13.912" height="13.912" viewBox="0 0 13.912 13.912">
  <defs>
    <style>
      .cls-1 {
        fill: #778efe;
      }
    </style>
  </defs>
  <path id="Icon_material-group-work" data-name="Icon material-group-work" class="cls-1" d="M9.956,3a6.956,6.956,0,1,0,6.956,6.956A6.959,6.959,0,0,0,9.956,3ZM7.174,13.782a1.739,1.739,0,1,1,1.739-1.739A1.74,1.74,0,0,1,7.174,13.782ZM8.217,7.174A1.739,1.739,0,1,1,9.956,8.913,1.74,1.74,0,0,1,8.217,7.174Zm4.521,6.608a1.739,1.739,0,1,1,1.739-1.739A1.74,1.74,0,0,1,12.738,13.782Z" transform="translate(-3 -3)"/>
</svg>
