<svg data-name="그룹 868" xmlns="http://www.w3.org/2000/svg" width="24" height="24">
    <path data-name="패스 2015" d="M13.754 9.6V6.4A2.419 2.419 0 0 0 11.315 4h0l-3.25 7.2V20h9.169a1.618 1.618 0 0 0 1.625-1.36l1.122-7.2a1.6 1.6 0 0 0-1.362-1.822 1.657 1.657 0 0 0-.264-.018zM8.065 20H5.626A1.614 1.614 0 0 1 4 18.4v-5.6a1.613 1.613 0 0 1 1.625-1.6h2.44" style="stroke:#fff;stroke-linecap:round;stroke-linejoin:round;stroke-width:2px;fill:none"/>
    <path data-name="사각형 4337" style="fill:none" d="M0 0h24v24H0z"/>
</svg>
