<svg xmlns="http://www.w3.org/2000/svg" width="20" height="20">
    <g data-name="그룹 1476">
        <path data-name="합치기 6" d="m3.75 15.112-1.666-.962-1.667-.962a.834.834 0 0 1 0-1.443l1.667-.963L3.75 9.82a.833.833 0 0 1 1.25.721v1.224h4.167A4.172 4.172 0 0 0 13.334 7.6.833.833 0 0 1 15 7.6a5.841 5.841 0 0 1-5.833 5.834H5v.958a.832.832 0 0 1-1.25.722zM0 7.725a5.84 5.84 0 0 1 5.833-5.833H10V.835a.833.833 0 0 1 1.25-.722l1.667.963 1.666.962a.833.833 0 0 1 0 1.443l-1.666.962-1.667.962A.833.833 0 0 1 10 4.684V3.558H5.833a4.171 4.171 0 0 0-4.166 4.167.834.834 0 1 1-1.667 0z" transform="translate(2.5 2.275)" style="fill:#fff;stroke:transparent;stroke-miterlimit:10"/>
        <path data-name="사각형 4216" style="fill:none" d="M0 0h20v20H0z"/>
    </g>
</svg>
