<svg xmlns="http://www.w3.org/2000/svg" width="20" height="20">
    <g data-name="그룹 644">
        <g data-name="그룹 643">
            <path data-name="합치기 9" d="M10.833 13.016v-1.148a4.182 4.182 0 0 1-3.5-2.047.833.833 0 1 1 1.434-.848 2.509 2.509 0 0 0 2.066 1.227V9.168a.834.834 0 0 1 1.25-.722l1.667.963 1.667.962a.834.834 0 0 1 0 1.444l-1.667.961-1.667.963a.826.826 0 0 1-.415.113.835.835 0 0 1-.835-.836zm-10-.63a.833.833 0 1 1 0-1.666H1.95A2.512 2.512 0 0 0 4.1 9.492L7.328 4.03a4.184 4.184 0 0 1 3.5-2.047V.835a.834.834 0 0 1 1.25-.722l1.667.963 1.667.962a.834.834 0 0 1 0 1.444l-1.667.962-1.667.962a.834.834 0 0 1-1.25-.722V3.651a2.514 2.514 0 0 0-2.065 1.227l-3.226 5.461a4.182 4.182 0 0 1-3.587 2.048zm3.579-7.5L4.1 4.361a2.509 2.509 0 0 0-2.15-1.229H.834a.833.833 0 1 1 0-1.667H1.95a4.182 4.182 0 0 1 3.587 2.048l.309.523a.833.833 0 1 1-1.434.848z" transform="translate(2.5 3.333)" style="stroke:transparent;stroke-miterlimit:10;fill:#fff"/>
        </g>
    </g>
</svg>
