<svg xmlns="http://www.w3.org/2000/svg" width="16" height="16">
    <defs>
        <linearGradient id="a" x1=".5" x2=".5" y2="1" gradientUnits="objectBoundingBox">
            <stop offset="0" stop-color="#ff994a"/>
            <stop offset="1" stop-color="#ff4f19"/>
        </linearGradient>
    </defs>
    <g data-name="그룹 634">
        <path data-name="사각형 4217" style="fill:none" d="M0 0h16v16H0z"/>
        <g data-name="그룹 543">
            <path data-name="합치기 8" d="M.162 10.214A.772.772 0 0 1 0 9.745V.759A.752.752 0 0 1 .745 0a.734.734 0 0 1 .465.167l5.511 4.491a.769.769 0 0 1 .116 1.067.727.727 0 0 1-.116.117L1.21 10.334a.736.736 0 0 1-1.048-.12zm10.468.037a1.037 1.037 0 0 1-1-1.071V1.323a1 1 0 1 1 2 0v7.858a1.037 1.037 0 0 1-1 1.071z" style="stroke:transparent;stroke-miterlimit:10;fill:url(#a)" transform="translate(2.031 2.75)"/>
        </g>
    </g>
</svg>
