<svg xmlns="http://www.w3.org/2000/svg" width="20" height="20">
    <defs>
        <style>
            .cls-3{fill:#182566}
        </style>
    </defs>
    <g id="그룹_4719" data-name="그룹 4719" transform="translate(-540 -832)">
        <g id="그룹_4160" data-name="그룹 4160" transform="translate(4 -36)">
            <circle id="타원_203" data-name="타원 203" cx="10" cy="10" r="10" transform="translate(536 868)" style="fill:#778eff"/>
        </g>
        <g id="그룹_4164" data-name="그룹 4164" transform="translate(-128 403.98)">
            <g id="그룹_4162" data-name="그룹 4162" transform="translate(672.306 432.038)">
                <path id="패스_3551" data-name="패스 3551" class="cls-3" d="M682.71 436.96a.694.694 0 0 1-.664-.5 4.209 4.209 0 0 0-8.076 0 .693.693 0 0 1-1.329-.391 5.594 5.594 0 0 1 10.734 0 .692.692 0 0 1-.469.86.682.682 0 0 1-.196.031z" transform="translate(-672.613 -432.055)"/>
                <path id="패스_3552" data-name="패스 3552" class="cls-3" d="m688.7 436.777-.633.433a.667.667 0 0 0 .088 1.151l1.388.666 1.388.665a.667.667 0 0 0 .953-.652l-.117-1.535-.118-1.535a.666.666 0 0 0-1.041-.5l-.808.553z" transform="translate(-680.197 -433.705)"/>
            </g>
            <g id="그룹_4163" data-name="그룹 4163" transform="translate(672 437.965)">
                <path id="패스_3553" data-name="패스 3553" class="cls-3" d="M674.5 446.208a.694.694 0 0 1 .664.5 4.209 4.209 0 0 0 8.076 0 .693.693 0 1 1 1.329.391 5.594 5.594 0 0 1-10.734 0 .692.692 0 0 1 .469-.86.681.681 0 0 1 .196-.031z" transform="translate(-672.902 -445.058)"/>
                <path id="패스_3554" data-name="패스 3554" class="cls-3" d="m675.186 446.892.633-.433a.666.666 0 0 0-.088-1.151l-1.388-.666-1.389-.665a.667.667 0 0 0-.953.652l.118 1.535.117 1.535a.667.667 0 0 0 1.041.5l.808-.553z" transform="translate(-672 -443.91)"/>
            </g>
        </g>
    </g>
</svg>
