<svg xmlns="http://www.w3.org/2000/svg" width="20" height="20">
    <g data-name="그룹 1468">
        <path data-name="합치기 10" d="M12.809 13.206a.832.832 0 0 1 0-1.178 7.51 7.51 0 0 0 0-10.6.833.833 0 0 1 1.178-1.184 9.177 9.177 0 0 1 0 12.962.832.832 0 0 1-1.178 0zm-5.986-1.215-3.49-2.809H.417A.418.418 0 0 1 0 8.762V4.571a.418.418 0 0 1 .417-.419h2.916l3.49-2.809a.416.416 0 0 1 .677.327v9.994a.418.418 0 0 1-.419.42.409.409 0 0 1-.258-.093zm3.424-1.551a.833.833 0 0 1 0-1.178 3.336 3.336 0 0 0 0-4.713.833.833 0 0 1 1.179-1.179 5.005 5.005 0 0 1 0 7.07.833.833 0 0 1-1.178 0z" transform="translate(1.667 3.125)" style="fill:#fff;stroke:transparent;stroke-miterlimit:10"/>
        <path data-name="사각형 4199" style="fill:none" d="M0 0h20v20H0z"/>
    </g>
</svg>
