<svg xmlns="http://www.w3.org/2000/svg" width="13.897" height="16.036" viewBox="0 0 13.897 16.036">
  <defs>
    <style>
      .cls-1 {
        fill: #778efe;
      }
    </style>
  </defs>
  <path id="패스_4052" data-name="패스 4052" class="cls-1" d="M64.463,771.46l-5.956-1.434a.967.967,0,0,0-.449,0L52.1,771.46a1.022,1.022,0,0,0-.768,1v5.674c0,4.636,5.118,7.188,6.569,7.819a.939.939,0,0,0,.758,0c1.451-.631,6.569-3.183,6.569-7.819v-5.674A1.022,1.022,0,0,0,64.463,771.46Zm-3.2,4.71-3.107,3.207a.8.8,0,0,1-.572.245h0a.8.8,0,0,1-.572-.24l-1.7-1.732a.8.8,0,1,1,1.143-1.124l1.128,1.146,2.535-2.616a.8.8,0,1,1,1.151,1.115Z" transform="translate(-51.334 -770)"/>
</svg>
