<svg xmlns="http://www.w3.org/2000/svg" width="10" height="9.955">
    <g data-name="그룹 1569">
        <path data-name="Icon material-wb-sunny" d="M4.118 2.775 3.3 1.961l-.641.639.814.814zM2.864 5.348H1.5v.909h1.364zM6.955.825h-.91v1.341h.909zM10.341 2.6 9.7 1.961l-.814.814.641.641zM8.882 8.83l.814.818.641-.641-.818-.814-.636.636zm1.255-3.482v.909H11.5v-.909zM6.5 3.075A2.727 2.727 0 1 0 9.227 5.8 2.729 2.729 0 0 0 6.5 3.075zm-.455 7.7h.909V9.439h-.909zM2.659 9l.641.641.814-.818-.641-.641z" transform="translate(-1.5 -.825)" style="fill:#fff"/>
    </g>
</svg>
