<svg xmlns="http://www.w3.org/2000/svg" width="16" height="16">
    <g data-name="그룹 6187" transform="translate(-1200 -447)">
        <circle data-name="타원 128" cx="8" cy="8" r="8" transform="translate(1200 447)" style="fill:#ff994a"/>
        <path data-name="Icon ionic-ios-star" d="M11.871 6.589H8.587l-1-2.978a.362.362 0 0 0-.679 0l-1 2.978H2.607a.358.358 0 0 0-.357.357.262.262 0 0 0 .007.06.343.343 0 0 0 .15.252l2.7 1.9-1.038 3.014a.358.358 0 0 0 .123.4.345.345 0 0 0 .2.087.438.438 0 0 0 .223-.08L7.25 10.7l2.634 1.88a.418.418 0 0 0 .223.08.321.321 0 0 0 .2-.087.354.354 0 0 0 .123-.4L9.393 9.161l2.676-1.92.065-.056a.341.341 0 0 0-.263-.6z" transform="translate(1200.75 446.982)" style="fill:#fff"/>
    </g>
</svg>
