<?xml version="1.0" encoding="utf-8"?>
<svg version="1.1" xmlns:xlink="http://www.w3.org/1999/xlink" width="16px" height="16px" xmlns="http://www.w3.org/2000/svg">
  <g transform="matrix(1 0 0 1 -355 -1226 )">
    <path d="M 14.545454545454545 16  L 15.469090909090909 15.076363636363636  L 12.894545454545455 12.494545454545454  L 3.4763636363636365 3.0763636363636366  L 0.9236363636363637 0.5236363636363636  L 0 1.4472727272727275  L 1.4618181818181817 2.909090909090909  L 1.4545454545454546 2.909090909090909  L 1.4545454545454546 7.2727272727272725  C 1.4545454545454546 11.30909090909091  4.247272727272727 15.083636363636366  8 16  C 9.57090909090909 15.614545454545453  10.967272727272727 14.719999999999999  12.072727272727274 13.52  L 14.545454545454545 16  Z M 7.2727272727272725 5.032727272727272  L 8.727272727272727 6.487272727272727  L 13.57818181818182 11.338181818181818  C 14.18909090909091 10.087272727272726  14.545454545454545 8.69818181818182  14.545454545454545 7.2727272727272725  L 14.545454545454545 2.909090909090909  L 8 0  L 4.014545454545455 1.7745454545454544  L 7.2727272727272725 5.032727272727272  Z " fill-rule="nonzero" fill="#ec808d" stroke="none" transform="matrix(1 0 0 1 355 1226 )" />
  </g>
</svg>