<svg data-name="그룹 870" xmlns="http://www.w3.org/2000/svg" width="24" height="24">
    <path data-name="패스 2016" d="M20 11.442a7.55 7.55 0 0 1-.811 3.423 7.656 7.656 0 0 1-6.846 4.235 7.564 7.564 0 0 1-3.423-.812L3.786 20 5.5 14.865a7.55 7.55 0 0 1-.811-3.423A7.658 7.658 0 0 1 8.919 4.6a7.562 7.562 0 0 1 3.423-.81h.45A7.638 7.638 0 0 1 20 10.992z" style="stroke:#fff;stroke-linecap:round;stroke-linejoin:round;stroke-width:2px;fill:none"/>
    <path data-name="사각형 4339" style="fill:none" d="M0 0h24v24H0z"/>
</svg>
